<?xml version="1.0" encoding="utf-8"?>
<!-- Generator: Adobe Illustrator 27.5.0, SVG Export Plug-In . SVG Version: 6.00 Build 0)  -->
<svg version="1.1" xmlns="http://www.w3.org/2000/svg" xmlns:xlink="http://www.w3.org/1999/xlink" x="0px" y="0px"
	 viewBox="0 0 500 500" style="enable-background:new 0 0 500 500;" xml:space="preserve">
<g id="Background_Simple">
	<g>
		<path style="fill:#92E3A9;" d="M464.497,110.177c-1.584-2.687-3.246-5.323-4.987-7.903
			c-23.183-34.346-63.071-57.838-102.312-68.458c-17.184-4.651-34.93-7.089-52.711-7.692
			c-116.614-3.953-163.062,87.955-201.604,111.673S5.045,202.033,8.998,287.024s65.225,165.039,183.816,169.98
			c118.591,4.941,126.497-48.424,192.71-68.19c43.819-13.08,74.952-57.26,90.197-98.088
			C496.496,235.084,495.517,162.81,464.497,110.177z"/>
		<path style="opacity:0.7;fill:#FFFFFF;" d="M464.497,110.177c-1.584-2.687-3.246-5.323-4.987-7.903
			c-23.183-34.346-63.071-57.838-102.312-68.458c-17.184-4.651-34.93-7.089-52.711-7.692
			c-116.614-3.953-163.062,87.955-201.604,111.673S5.045,202.033,8.998,287.024s65.225,165.039,183.816,169.98
			c118.591,4.941,126.497-48.424,192.71-68.19c43.819-13.08,74.952-57.26,90.197-98.088
			C496.496,235.084,495.517,162.81,464.497,110.177z"/>
	</g>
</g>
<g id="Floor">
	<g>
		<line style="fill:none;stroke:#263238;stroke-miterlimit:10;" x1="327" y1="473" x2="469" y2="473"/>
		<line style="fill:none;stroke:#263238;stroke-miterlimit:10;" x1="80" y1="473" x2="321" y2="473"/>
		<line style="fill:none;stroke:#263238;stroke-miterlimit:10;" x1="33" y1="473" x2="72" y2="473"/>
	</g>
</g>
<g id="Bricks">
	<g>
		<rect x="420" y="252.29" style="opacity:0.2;" width="42" height="17"/>
		<rect x="404" y="191.79" style="opacity:0.2;" width="42" height="17"/>
		<rect x="252" y="251.79" style="opacity:0.2;" width="42" height="17"/>
		<rect x="313" y="133.5" style="opacity:0.2;" width="42" height="17"/>
		<rect x="359" y="133.5" style="opacity:0.2;" width="42" height="17"/>
		<rect x="180" y="377.5" style="opacity:0.2;" width="42" height="17"/>
		<rect x="158" y="398.5" style="opacity:0.2;" width="42" height="17"/>
		<rect x="381" y="215.29" style="opacity:0.1;" width="42" height="17"/>
		<rect x="444" y="310.789" style="opacity:0.1;" width="42" height="17"/>
		<rect x="198" y="336.789" style="opacity:0.1;" width="42" height="17"/>
		<rect x="246" y="336.789" style="opacity:0.1;" width="42" height="17"/>
		<rect x="250" y="312.789" style="opacity:0.1;" width="42" height="17"/>
		<rect x="429" y="215.29" style="opacity:0.1;" width="42" height="17"/>
		<rect x="304" y="396.789" style="opacity:0.2;" width="42" height="17"/>
		<rect x="281" y="420.289" style="opacity:0.1;" width="42" height="17"/>
		<rect x="329" y="420.289" style="opacity:0.1;" width="42" height="17"/>
		<rect x="100.392" y="185.2" style="opacity:0.2;" width="42" height="17"/>
		<rect x="77.392" y="208.7" style="opacity:0.1;" width="42" height="17"/>
		<rect x="125.392" y="208.7" style="opacity:0.1;" width="42" height="17"/>
		<rect x="84" y="311.789" style="opacity:0.2;" width="42" height="17"/>
		<rect x="270" y="230.5" style="opacity:0.1;" width="42" height="17"/>
		<rect x="207" y="397.5" style="opacity:0.1;" width="42" height="17"/>
		<rect x="337" y="112.5" style="opacity:0.1;" width="42" height="17"/>
		<rect x="60" y="255.5" style="opacity:0.2;" width="42" height="17"/>
		<rect x="84" y="234.5" style="opacity:0.1;" width="42" height="17"/>
		<rect x="191" y="132.29" style="opacity:0.1;" width="42" height="17"/>
		<rect x="337" y="252.29" style="opacity:0.2;" width="42" height="17"/>
		<rect x="94.392" y="23.2" style="opacity:0.2;" width="42" height="17"/>
		<rect x="12.392" y="125.2" style="opacity:0.1;" width="42" height="17"/>
		<rect x="60.392" y="125.2" style="opacity:0.1;" width="42" height="17"/>
		<rect x="64.392" y="101.2" style="opacity:0.1;" width="42" height="17"/>
		<rect x="33" y="169.5" style="opacity:0.1;" width="42" height="17"/>
		<rect x="151.392" y="40.7" style="opacity:0.2;" width="42" height="17"/>
	</g>
</g>
<g id="Plants">
	<g>
		<path style="fill:#92E3A9;" d="M81.094,406.24c3.864,0.226,6.399-2.542,9.651-4.747c0.664-0.45,3.359-2.555,4.501-3.007
			c-1.5,2.038-3.05,4.218-4.426,6.438c-2.322,1.717-5.14,3.971-7.217,5.765c-2.951,2.549-6.75,6.634-4.172,9.745
			c1.905,2.299,4.604,1.362,6.462-0.623c2.347-2.508,2.792-5.765,3.663-9.366c0.172-0.712,0.856-3.848,1.413-4.968
			c0.084-0.168,0.613-1.022,0.698-1.154c0.019-0.029,0.028-0.043,0.034-0.052c0.001-0.001-0.002,0.003-0.001,0
			c1.012-1.599,2.126-3.211,3.255-4.716c-1.134,2.281-2.467,5.339-3.308,7.578c-1.37,3.651-2.185,9.686,2.62,10.224
			c3.55,0.398,4.642-3.01,5.1-5.629c0.579-3.311-0.633-5.641-2.027-8.88c-0.308-0.717-1.575-3.172-1.577-4.319
			c0-0.086,0.164-0.272,0.214-0.323c0.021-0.022,0.099-0.045,0.176-0.059c-0.04-0.023-0.076-0.046-0.096-0.052
			c2.173-2.768,4.511-5.385,7.079-7.849c0.193-0.185,0.407-0.374,0.605-0.546c-0.869,2.777-1.745,5.761-2.386,8.559
			c-0.819,3.572-0.505,9.465,4.205,9.345c3.479-0.089,4.198-3.283,4.246-5.829c0.061-3.218-1.541-5.315-3.461-8.138
			c-0.464-0.682-2.379-2.81-2.46-4.027c-0.002-0.025,0.007-0.069,0.05-0.072c0.018-0.001,0.088,0.006,0.156,0.02
			c-0.03-0.043-0.058-0.086-0.076-0.101c1.526-1.113,2.885-2.465,4.554-3.399c1.67-0.935,3.623-1.445,5.391-2.214
			c-1.329,2.053-2.287,3.985-3.061,6.336c-1.103,3.35-1.485,9.149,2.848,10.057c3.201,0.671,4.478-2.092,4.861-4.497
			c0.484-3.04-0.915-5.249-2.388-8.124c-0.328-0.641-1.762-2.843-1.844-3.877c2.699-1.114,5.486-2.044,8.179-3.218
			c-0.929,2.312-1.753,3.95-2.192,6.549c-0.559,3.31,0.742,8.088,4.842,8.517c3.03,0.317,4.138-2.113,4.057-4.45
			c-0.101-2.954-1.863-4.647-3.883-7.042c-0.488-0.578-2.52-2.498-2.664-3.59c3.108-1.427,6.091-2.774,8.542-5.152
			c0.014,0.038,0.025,0.088,0.062,0.099c0.027,0.009-0.013-0.078-0.032-0.105c0.029-0.033,0.124-0.298,0.122-0.134
			c-0.031,2.445-0.766,4.359-0.945,7.073c-0.216,3.267,1.686,7.617,5.865,7.511c3.088-0.078,3.628-3.019,3.1-5.268
			c-0.668-2.842-2.419-4.2-4.812-6.233c-0.602-0.511-2.831-2.047-3.137-3.136c2.589-3.124,4.691-6.341,6.389-9.921l-0.394-0.093
			c-1.693,3.532-3.749,6.727-6.356,9.79c-1.039-2.329-1.624-4.26-3.038-6.578c-1.893-3.104-5.827-6.77-10.016-4.954
			c-3.095,1.341-2.47,4.139-0.645,6.086c2.307,2.462,5.38,3.052,8.932,4.115c0.806,0.241,3.645,0.81,4.578,1.472
			c-2.275,2.399-5.362,3.706-8.411,5.09c-1.03-2.4-1.523-4.028-2.96-6.494c-1.813-3.112-6.049-6.485-10.177-4.669
			c-3.05,1.342-2.776,4.145-0.891,5.999c2.382,2.343,5.237,2.529,8.747,3.544c0.837,0.242,4.142,0.836,5.111,1.643
			c-2.516,1.111-5.285,2.05-7.881,3.094c0.136,0.179,0.229,0.333-0.396-0.257c-1.087-1.026-2.961-3.348-5.4-5.205
			c-2.439-1.857-8.424-3.789-11.405-0.295c-2.203,2.581-0.864,4.986,1.873,5.848c3.459,1.089,5.896-0.138,9.624-0.434
			c0.99-0.079,4.402-0.518,5.554,0.359c0.017,0.013,0.022,0.006,0.01,0.011c-1.904,0.829-4.153,1.407-5.928,2.384
			c-1.775,0.978-3.102,2.345-4.661,3.5c-2.05-1.573-3.105-2.691-5.675-4.07c-3.554-1.908-8.871-2.084-11.606,1.602
			c-2.02,2.723-0.642,5.305,2.241,6.093c3.645,0.996,6.246-0.645,9.924-1.804c0.759-0.239,3.51-1.459,4.678-1.47
			c-0.079,0.104-0.272,0.255-0.414,0.393c-2.596,2.529-5.039,5.197-7.207,8.033c-2.648-0.699-4.205-1.322-7.174-1.836
			c-4.098-0.708-9.72,0.62-11.314,4.792C76.011,404.01,78.037,406.061,81.094,406.24z"/>
		<path style="fill:#92E3A9;" d="M42.182,412.829c3.448-1.759,4.236-5.427,5.927-8.974c0.345-0.724,1.607-3.902,2.363-4.869
			c-0.264,2.516-0.5,5.181-0.565,7.792c-1.136,2.655-2.428,6.024-3.313,8.623c-1.258,3.691-2.471,9.136,1.327,10.517
			c2.806,1.021,4.661-1.153,5.261-3.804c0.758-3.351-0.505-6.386-1.574-9.933c-0.211-0.701-1.206-3.753-1.292-5
			c-0.013-0.187,0.012-1.192,0.019-1.349c0.002-0.034,0.003-0.051,0.003-0.062c0-0.001-0.001,0.003-0.001,0.001
			c0.065-1.891,0.212-3.845,0.425-5.714c0.174,2.542,0.57,5.853,0.976,8.21c0.663,3.842,3.01,9.462,7.428,7.497
			c3.264-1.451,2.484-4.943,1.555-7.434c-1.174-3.149-3.398-4.547-6.237-6.637c-0.628-0.463-2.962-1.94-3.544-2.93
			c-0.043-0.074,0.004-0.318,0.022-0.387c0.007-0.03,0.063-0.089,0.122-0.14c-0.046,0-0.089-0.001-0.11,0.004
			c0.475-3.487,1.171-6.927,2.14-10.35c0.073-0.257,0.163-0.529,0.245-0.777c0.654,2.835,1.407,5.852,2.268,8.591
			c1.099,3.496,4.349,8.422,8.352,5.937c2.957-1.835,1.963-4.955,0.717-7.176c-1.574-2.807-4.016-3.807-7.1-5.273
			c-0.745-0.354-3.473-1.223-4.158-2.232c-0.014-0.021-0.029-0.063,0.007-0.088c0.015-0.01,0.079-0.039,0.145-0.062
			c-0.048-0.022-0.094-0.046-0.117-0.048c0.754-1.731,1.243-3.584,2.211-5.235c0.968-1.65,2.396-3.078,3.532-4.635
			c-0.109,2.443,0.041,4.595,0.561,7.014c0.742,3.448,3.344,8.645,7.541,7.238c3.101-1.039,2.806-4.069,1.921-6.338
			c-1.119-2.868-3.443-4.066-6.167-5.802c-0.607-0.387-2.957-1.562-3.55-2.413c1.766-2.326,3.701-4.537,5.43-6.911
			c0.367,2.464,0.484,4.294,1.419,6.759c1.191,3.139,4.728,6.604,8.483,4.901c2.774-1.258,2.502-3.914,1.251-5.891
			c-1.581-2.498-3.956-3.067-6.911-4.113c-0.713-0.252-3.437-0.882-4.114-1.751c1.961-2.803,3.853-5.473,4.766-8.764
			c0.032,0.026,0.066,0.063,0.103,0.055c0.028-0.006-0.051-0.061-0.081-0.074c0.008-0.043-0.044-0.319,0.037-0.177
			c1.209,2.125,1.543,4.148,2.76,6.581c1.465,2.928,5.305,5.72,8.857,3.516c2.624-1.628,1.604-4.439,0.012-6.112
			c-2.013-2.114-4.21-2.401-7.303-2.945c-0.778-0.137-3.477-0.335-4.292-1.12c0.654-4.004,0.842-7.843,0.498-11.79l-0.387,0.119
			c0.325,3.904,0.165,7.7-0.536,11.66c-2.074-1.484-3.554-2.854-5.947-4.14c-3.203-1.721-8.449-2.896-11.146,0.788
			c-1.993,2.722-0.039,4.82,2.52,5.578c3.235,0.958,6.184-0.086,9.787-0.964c0.818-0.199,3.555-1.144,4.694-1.044
			c-0.75,3.22-2.753,5.908-4.684,8.644c-2.102-1.55-3.351-2.706-5.837-4.107c-3.137-1.769-8.497-2.538-11.141,1.116
			c-1.953,2.699-0.299,4.98,2.264,5.627c3.24,0.818,5.798-0.465,9.338-1.364c0.844-0.215,3.996-1.372,5.241-1.166
			c-1.609,2.231-3.524,4.44-5.235,6.654c0.208,0.086,0.366,0.172-0.472-0.022c-1.456-0.336-4.247-1.392-7.29-1.762
			c-3.043-0.369-9.184,0.989-9.99,5.51c-0.596,3.341,1.775,4.738,4.572,4.099c3.535-0.809,5.017-3.1,8.085-5.239
			c0.815-0.568,3.536-2.672,4.973-2.498c0.021,0.003,0.022-0.006,0.014,0.005c-1.224,1.677-2.872,3.313-3.91,5.054
			c-1.038,1.741-1.491,3.591-2.252,5.375c-2.564-0.321-4.039-0.752-6.954-0.643c-4.031,0.15-8.708,2.686-9.204,7.248
			c-0.367,3.371,2.128,4.902,5.014,4.125c3.648-0.983,5.063-3.714,7.65-6.573c0.534-0.59,2.291-3.033,3.293-3.633
			c-0.015,0.13-0.106,0.357-0.159,0.549c-0.962,3.495-1.721,7.031-2.158,10.574c-2.638,0.736-4.297,0.985-7.118,2.043
			c-3.894,1.46-8.073,5.448-7.34,9.853C36.669,413.474,39.454,414.22,42.182,412.829z"/>
		<path style="fill:#92E3A9;" d="M162.685,382.239c-1.05-4.32-2.458-8.314-4.369-12.179l-0.612-0.144
			c1.995,3.966,3.473,8.049,4.497,12.514c-3.049-0.684-5.375-1.523-8.689-1.831c-4.437-0.412-10.919,0.77-12.202,6.216
			c-0.948,4.024,2.259,5.458,5.509,5.09c4.108-0.465,6.938-3.052,10.584-5.765c0.827-0.616,3.465-2.989,4.798-3.422
			c0.692,3.992-0.284,7.983-1.156,11.992c-3.112-0.744-5.074-1.452-8.549-1.846c-4.386-0.497-10.801,1.196-12.039,6.583
			c-0.914,3.98,2.041,5.763,5.243,5.268c4.047-0.625,6.32-3.295,9.887-6.001c0.85-0.645,3.854-3.458,5.357-3.82
			c-0.75,3.286-1.855,6.695-2.729,10.01c0.276-0.002,0.495,0.019-0.543,0.201c-1.804,0.316-5.458,0.458-9.069,1.495
			c-3.61,1.038-9.891,5.504-8.64,10.992c0.924,4.055,4.268,4.499,7.118,2.441c3.603-2.602,4.181-5.895,6.62-9.776
			c0.648-1.03,2.714-4.705,4.419-5.195c0.025-0.007,0.022-0.017,0.018-0.001c-0.58,2.478-1.658,5.111-1.997,7.571
			c-0.339,2.46,0.034,4.765,0.027,7.142c-3.047,0.863-4.917,1.081-8.155,2.597c-4.477,2.096-8.543,7.193-6.923,12.578
			c1.197,3.979,4.743,4.516,7.629,2.259c3.647-2.853,3.939-6.61,5.493-11.074c0.32-0.921,1.137-4.517,1.98-5.673
			c0.045,0.154,0.051,0.454,0.083,0.695c0.585,4.403,1.417,8.757,2.618,12.964c-2.626,2.091-4.378,3.164-7.056,5.706
			c-3.697,3.508-6.507,10.006-3.575,14.627c2.167,3.414,5.667,2.925,8.08,0.051c3.051-3.633,2.187-8.149,2.401-12.959
			c0.044-0.982-0.051-5.171,0.34-6.624c0.904,2.966,1.912,6.086,3.086,9.064c-0.013,3.538,0.139,7.958,0.381,11.314
			c0.344,4.767,1.577,11.49,6.523,11.235c3.654-0.188,4.709-3.528,4.119-6.806c-0.746-4.143-3.622-6.965-6.523-10.457
			c-0.574-0.691-3.155-3.659-3.848-5.026c-0.104-0.205-0.556-1.351-0.623-1.531c-0.015-0.039-0.022-0.059-0.026-0.072
			c-0.001-0.001,0,0.004-0.001,0.002c-0.831-2.165-1.598-4.44-2.251-6.652c1.411,2.784,3.44,6.333,5.025,8.799
			c2.585,4.019,7.918,9.239,11.965,4.911c2.99-3.198,0.441-6.766-1.798-9.133c-2.83-2.993-6.007-3.507-10.21-4.51
			c-0.93-0.222-4.27-0.774-5.4-1.612c-0.085-0.063-0.147-0.361-0.161-0.447c-0.006-0.037,0.029-0.13,0.071-0.217
			c-0.052,0.022-0.101,0.042-0.122,0.057c-1.13-4.162-1.989-8.376-2.531-12.703c-0.041-0.325-0.069-0.674-0.094-0.994
			c2.093,2.887,4.384,5.932,6.664,8.612c2.911,3.42,8.932,7.426,12.262,2.71c2.46-3.484-0.152-6.529-2.619-8.44
			c-3.118-2.416-6.351-2.376-10.532-2.557c-1.01-0.043-4.503,0.28-5.759-0.531c-0.026-0.017-0.063-0.058-0.034-0.102
			c0.012-0.019,0.071-0.082,0.134-0.14c-0.064-0.002-0.127-0.007-0.155,0.001c0.024-2.314-0.31-4.639-0.006-6.964
			c0.304-2.325,1.233-4.619,1.771-6.918c1.044,2.809,2.242,5.166,3.985,7.647c2.485,3.537,7.904,8.158,11.968,4.565
			c3.003-2.654,1.223-5.932-0.861-8.07c-2.633-2.702-5.828-2.944-9.732-3.601c-0.87-0.147-4.083-0.35-5.159-1.027
			c0.881-3.469,2.008-6.888,2.826-10.394c1.592,2.606,2.598,4.615,4.831,6.95c2.844,2.973,8.491,5.193,11.915,1.477
			c2.53-2.745,0.953-5.613-1.403-7.245c-2.978-2.064-5.93-1.571-9.764-1.34c-0.925,0.056-4.3,0.647-5.479-0.011
			c0.873-4.1,1.733-8.017,1.191-12.167c0.048,0.014,0.105,0.039,0.143,0.012c0.028-0.02-0.087-0.044-0.126-0.046
			c-0.011-0.053-0.202-0.339-0.043-0.217c2.381,1.821,3.723,3.944,6.259,6.108c3.052,2.604,8.72,3.92,11.675-0.265
			c2.184-3.092-0.311-5.776-2.907-6.903c-3.282-1.424-5.899-0.698-9.649,0.166C167.121,381.669,163.98,382.736,162.685,382.239z"/>
	</g>
	<g>
		<path style="fill:#92E3A9;" d="M381.674,75.895c-3.643-0.68-6.384,1.642-9.738,3.344c-0.685,0.348-3.498,2.021-4.637,2.313
			c1.67-1.755,3.406-3.638,4.98-5.581c2.412-1.35,5.361-3.151,7.55-4.605c3.111-2.065,7.211-5.486,5.138-8.753
			c-1.532-2.414-4.209-1.848-6.212-0.188c-2.532,2.099-3.347,5.139-4.609,8.454c-0.249,0.655-1.277,3.552-1.941,4.548
			c-0.1,0.15-0.705,0.897-0.802,1.012c-0.021,0.025-0.032,0.037-0.039,0.046c-0.001,0.001,0.003-0.002,0.001,0
			c-1.154,1.396-2.407,2.793-3.661,4.086c1.352-2.03,2.987-4.773,4.056-6.798c1.741-3.302,3.244-8.936-1.255-10.026
			c-3.324-0.806-4.772,2.299-5.523,4.731c-0.949,3.075-0.079,5.434,0.854,8.678c0.206,0.718,1.113,3.202,0.977,4.293
			c-0.01,0.082-0.189,0.239-0.242,0.281c-0.023,0.018-0.1,0.031-0.175,0.035c0.035,0.027,0.067,0.053,0.085,0.061
			c-2.398,2.368-4.934,4.57-7.67,6.601c-0.205,0.152-0.432,0.306-0.64,0.446c1.16-2.533,2.352-5.261,3.299-7.842
			c1.208-3.294,1.621-8.929-2.867-9.383c-3.315-0.335-4.383,2.612-4.736,5.024c-0.446,3.049,0.823,5.234,2.306,8.147
			c0.358,0.704,1.92,2.956,1.851,4.122c-0.001,0.024-0.015,0.065-0.057,0.062c-0.018-0.001-0.083-0.017-0.146-0.037
			c0.023,0.045,0.044,0.089,0.06,0.105c-1.584,0.873-3.037,1.993-4.736,2.679c-1.699,0.686-3.616,0.936-5.387,1.452
			c1.51-1.789,2.653-3.509,3.672-5.648c1.452-3.049,2.514-8.511-1.491-9.896c-2.959-1.023-4.506,1.447-5.16,3.685
			c-0.826,2.829,0.236,5.096,1.288,8.004c0.235,0.648,1.33,2.913,1.284,3.904c-2.698,0.733-5.457,1.279-8.157,2.07
			c1.161-2.084,2.142-3.54,2.872-5.956c0.93-3.077,0.271-7.771-3.572-8.673c-2.839-0.666-4.185,1.508-4.39,3.737
			c-0.26,2.818,1.209,4.638,2.839,7.157c0.393,0.608,2.092,2.677,2.097,3.732c-3.124,0.981-6.12,1.9-8.735,3.863
			c-0.009-0.038-0.013-0.086-0.047-0.102c-0.025-0.011,0.003,0.076,0.018,0.103c-0.031,0.028-0.153,0.268-0.132,0.113
			c0.324-2.319,1.253-4.048,1.751-6.604c0.599-3.077-0.683-7.438-4.665-7.841c-2.942-0.298-3.81,2.43-3.579,4.63
			c0.292,2.78,1.791,4.281,3.819,6.5c0.51,0.558,2.442,2.285,2.601,3.357c-2.835,2.655-5.22,5.457-7.265,8.652l0.363,0.136
			c2.034-3.151,4.372-5.937,7.218-8.532c0.706,2.337,1.029,4.242,2.092,6.615c1.424,3.177,4.718,7.133,8.915,5.914
			c3.102-0.901,2.845-3.633,1.347-5.703c-1.894-2.616-4.741-3.547-7.987-4.986c-0.736-0.326-3.364-1.209-4.171-1.95
			c2.45-2.005,5.54-2.873,8.603-3.82c0.689,2.403,0.961,4.01,2.028,6.525c1.346,3.175,4.963,6.889,9.103,5.662
			c3.059-0.907,3.136-3.602,1.57-5.59c-1.98-2.513-4.669-3.034-7.88-4.421c-0.766-0.33-3.833-1.294-4.656-2.177
			c2.524-0.752,5.267-1.309,7.858-1.989c-0.107-0.187-0.177-0.344,0.345,0.292c0.908,1.106,2.408,3.537,4.501,5.595
			c2.093,2.058,7.544,4.615,10.797,1.656c2.404-2.186,1.422-4.631-1.073-5.78c-3.154-1.452-5.616-0.58-9.193-0.749
			c-0.95-0.045-4.243-0.039-5.232-1.01c-0.014-0.014-0.02-0.008-0.008-0.012c1.908-0.557,4.114-0.835,5.918-1.55
			c1.804-0.714,3.229-1.853,4.849-2.762c1.757,1.741,2.624,2.93,4.899,4.55c3.146,2.241,8.174,3.049,11.216-0.121
			c2.247-2.343,1.25-4.962-1.394-6.058c-3.342-1.386-6.01-0.141-9.643,0.517c-0.75,0.136-3.51,0.962-4.62,0.832
			c0.087-0.09,0.289-0.209,0.441-0.324c2.771-2.089,5.413-4.328,7.814-6.76c2.431,0.983,3.835,1.763,6.592,2.608
			c3.806,1.167,9.307,0.584,11.324-3.186C386.233,78.626,384.556,76.433,381.674,75.895z"/>
		<path style="fill:#92E3A9;" d="M301.284,88.85c0.476,4.23,1.332,8.193,2.681,12.094l0.563,0.211
			c-1.417-4.008-2.328-8.064-2.762-12.428c2.814,1.018,4.921,2.095,8.032,2.787c4.165,0.927,10.463,0.586,12.339-4.432
			c1.386-3.707-1.487-5.456-4.618-5.499c-3.958-0.054-6.957,2.062-10.748,4.199c-0.86,0.485-3.651,2.421-4.97,2.671
			c-0.176-3.875,1.233-7.548,2.544-11.251c2.866,1.083,4.644,1.991,7.897,2.784c4.106,1.001,10.403,0.167,12.229-4.8
			c1.349-3.67-1.244-5.72-4.344-5.636c-3.919,0.106-6.4,2.367-10.114,4.508c-0.885,0.51-4.078,2.819-5.549,2.982
			c1.109-3.031,2.57-6.135,3.799-9.178c-0.262-0.031-0.468-0.078,0.54-0.125c1.752-0.083,5.24,0.223,8.794-0.327
			c3.554-0.55,10.058-4.035,9.532-9.398c-0.389-3.963-3.511-4.788-6.466-3.177c-3.736,2.037-4.682,5.095-7.467,8.486
			c-0.74,0.901-3.145,4.141-4.823,4.402c-0.024,0.004-0.023,0.014-0.017-0.001c0.849-2.283,2.191-4.654,2.81-6.95
			c0.619-2.296,0.543-4.53,0.836-6.787c2.998-0.452,4.801-0.434,8.059-1.483c4.505-1.451,8.982-5.801,8.093-11.112
			c-0.657-3.924-3.961-4.861-6.974-3.066c-3.809,2.27-4.539,5.803-6.553,9.855c-0.415,0.836-1.624,4.153-2.565,5.15
			c-0.024-0.151,0.006-0.437,0.005-0.67c-0.024-4.253-0.29-8.489-0.922-12.629c2.746-1.669,4.54-2.478,7.39-4.569
			c3.934-2.886,7.388-8.719,5.159-13.461c-1.646-3.504-5.029-3.462-7.669-1.023c-3.336,3.082-3.06,7.476-3.843,12.019
			c-0.16,0.928-0.575,4.917-1.122,6.251c-0.501-2.926-1.081-6.011-1.838-8.981c0.439-3.359,0.828-7.575,1.002-10.792
			c0.248-4.569-0.112-11.104-4.84-11.458c-3.493-0.262-4.898,2.783-4.733,5.968c0.209,4.026,2.6,7.052,4.934,10.719
			c0.461,0.725,2.555,3.856,3.048,5.237c0.074,0.208,0.365,1.35,0.407,1.529c0.009,0.039,0.014,0.058,0.017,0.072
			c0,0.001,0-0.004,0.001-0.002c0.528,2.156,0.983,4.41,1.336,6.59c-1.005-2.815-2.503-6.431-3.712-8.963
			c-1.97-4.129-6.406-9.73-10.772-6.108c-3.226,2.677-1.235,6.373,0.606,8.891c2.327,3.184,5.282,4.056,9.154,5.515
			c0.857,0.323,3.962,1.25,4.934,2.183c0.073,0.07,0.097,0.361,0.099,0.444c0.001,0.036-0.043,0.12-0.093,0.197
			c0.052-0.015,0.101-0.027,0.122-0.039c0.571,4.09,0.879,8.195,0.871,12.371c-0.001,0.313-0.016,0.649-0.031,0.956
			c-1.639-2.995-3.448-6.163-5.291-8.983c-2.352-3.599-7.588-8.13-11.32-4.052c-2.757,3.012-0.643,6.22,1.47,8.333
			c2.67,2.671,5.746,3.023,9.695,3.699c0.954,0.163,4.311,0.277,5.406,1.199c0.022,0.019,0.053,0.063,0.02,0.101
			c-0.014,0.017-0.077,0.069-0.144,0.116c0.061,0.01,0.12,0.021,0.147,0.018c-0.302,2.195-0.265,4.443-0.835,6.615
			c-0.569,2.172-1.728,4.238-2.517,6.358c-0.653-2.794-1.506-5.177-2.862-7.744c-1.934-3.659-6.523-8.702-10.817-5.78
			c-3.172,2.159-1.877,5.487-0.156,7.769c2.175,2.884,5.18,3.499,8.809,4.594c0.809,0.244,3.836,0.825,4.777,1.597
			c-1.255,3.188-2.738,6.3-3.938,9.531c-1.198-2.667-1.911-4.697-3.75-7.184c-2.343-3.167-7.439-5.957-11.138-2.84
			c-2.734,2.302-1.582,5.216,0.458,7.051c2.579,2.319,5.443,2.208,9.112,2.45c0.885,0.059,4.162-0.096,5.203,0.671
			c-1.324,3.788-2.613,7.406-2.598,11.412c-0.044-0.019-0.095-0.05-0.134-0.029c-0.03,0.016,0.077,0.053,0.115,0.059
			c0.004,0.051,0.151,0.347,0.014,0.212c-2.042-2.017-3.061-4.195-5.208-6.556c-2.585-2.841-7.809-4.775-11.121-1.157
			c-2.447,2.673-0.402,5.524,1.929,6.907c2.946,1.748,5.518,1.374,9.184,1.006C297.002,88.856,300.114,88.222,301.284,88.85z"/>
	</g>
</g>
<g id="Page">
	<g>
		<path style="fill:#FFFFFF;stroke:#263238;stroke-linecap:round;stroke-linejoin:round;stroke-miterlimit:10;" d="M329.721,386
			H76.5c-5.799,0-10.5-4.701-10.5-10.5V68.605c0-5.799,4.701-10.5,10.5-10.5h253.221c5.799,0,10.5,4.701,10.5,10.5V375.5
			C340.221,381.299,335.52,386,329.721,386z"/>
		<path style="fill:#B2B2B2;stroke:#263238;stroke-linecap:round;stroke-linejoin:round;stroke-miterlimit:10;" d="M331.113,58.172
			v327.761c5.123-0.567,9.108-4.906,9.108-10.18V68.352C340.221,63.078,336.236,58.739,331.113,58.172z"/>
		
			<rect x="331.113" y="185.295" style="fill:#808080;stroke:#263238;stroke-linecap:round;stroke-linejoin:round;stroke-miterlimit:10;" width="9.108" height="51.396"/>
		<g>
			<path style="fill:#B2B2B2;stroke:#263238;stroke-linecap:round;stroke-linejoin:round;stroke-miterlimit:10;" d="
				M340.221,100.454V68.352c0-5.659-4.588-10.247-10.247-10.247H76.247C70.588,58.105,66,62.693,66,68.352v32.102H340.221z"/>
			
				<line style="fill:none;stroke:#263238;stroke-linecap:round;stroke-linejoin:round;stroke-miterlimit:10;" x1="76.228" y1="78.428" x2="95.294" y2="78.428"/>
			
				<line style="fill:none;stroke:#263238;stroke-linecap:round;stroke-linejoin:round;stroke-miterlimit:10;" x1="115.865" y1="78.428" x2="134.931" y2="78.428"/>
			
				<line style="fill:none;stroke:#263238;stroke-linecap:round;stroke-linejoin:round;stroke-miterlimit:10;" x1="155.502" y1="78.428" x2="174.568" y2="78.428"/>
			
				<line style="fill:none;stroke:#263238;stroke-linecap:round;stroke-linejoin:round;stroke-miterlimit:10;" x1="195.139" y1="78.428" x2="214.205" y2="78.428"/>
			
				<line style="fill:none;stroke:#263238;stroke-linecap:round;stroke-linejoin:round;stroke-miterlimit:10;" x1="234.776" y1="78.428" x2="253.842" y2="78.428"/>
			
				<line style="fill:none;stroke:#263238;stroke-linecap:round;stroke-linejoin:round;stroke-miterlimit:10;" x1="274.414" y1="78.428" x2="293.48" y2="78.428"/>
			
				<line style="fill:#FFFFFF;stroke:#263238;stroke-linecap:round;stroke-linejoin:round;stroke-miterlimit:10;" x1="105.83" y1="83.446" x2="105.83" y2="96.491"/>
			
				<line style="fill:#FFFFFF;stroke:#263238;stroke-linecap:round;stroke-linejoin:round;stroke-miterlimit:10;" x1="158.066" y1="83.446" x2="158.066" y2="96.491"/>
			
				<line style="fill:#FFFFFF;stroke:#263238;stroke-linecap:round;stroke-linejoin:round;stroke-miterlimit:10;" x1="223.236" y1="83.446" x2="223.236" y2="96.491"/>
			
				<line style="fill:#FFFFFF;stroke:#263238;stroke-linecap:round;stroke-linejoin:round;stroke-miterlimit:10;" x1="262.372" y1="83.446" x2="262.372" y2="96.491"/>
			
				<rect x="274.915" y="84.449" style="fill:#FFFFFF;stroke:#263238;stroke-linecap:round;stroke-linejoin:round;stroke-miterlimit:10;" width="7.526" height="11.038"/>
			
				<rect x="313.549" y="84.449" style="fill:#FFFFFF;stroke:#263238;stroke-linecap:round;stroke-linejoin:round;stroke-miterlimit:10;" width="13.045" height="11.038"/>
			
				<rect x="313.549" y="84.449" style="fill:#FFFFFF;stroke:#263238;stroke-linecap:round;stroke-linejoin:round;stroke-miterlimit:10;" width="13.045" height="3.512"/>
			
				<rect x="284.95" y="84.449" style="fill:#FFFFFF;stroke:#263238;stroke-linecap:round;stroke-linejoin:round;stroke-miterlimit:10;" width="7.526" height="6.021"/>
			
				<rect x="295.236" y="84.449" style="fill:#FFFFFF;stroke:#263238;stroke-linecap:round;stroke-linejoin:round;stroke-miterlimit:10;" width="7.526" height="6.021"/>
			<g>
				<g>
					<rect x="110.101" y="87.011" style="fill:#263238;" width="1.685" height="7.221"/>
					<polygon style="fill:#263238;" points="114.013,90.717 118.764,93.46 118.764,87.974 					"/>
				</g>
				<g>
					
						<rect x="150.055" y="87.011" transform="matrix(-1 -1.224647e-16 1.224647e-16 -1 301.7953 181.2431)" style="fill:#263238;" width="1.685" height="7.221"/>
					<polygon style="fill:#263238;" points="147.829,90.717 143.077,93.46 143.077,87.974 					"/>
				</g>
				<polygon style="fill:#263238;" points="122.678,90.717 127.429,93.46 127.429,87.974 				"/>
				<polygon style="fill:#263238;" points="137.779,90.717 133.028,93.46 133.028,87.974 				"/>
			</g>
			<g>
				<path style="fill:#FFFFFF;stroke:#263238;stroke-linecap:round;stroke-linejoin:round;stroke-miterlimit:10;" d="M173.406,90.14
					c0-1.861-1.509-3.37-3.37-3.37s-3.37,1.509-3.37,3.37s1.509,3.37,3.37,3.37S173.406,92.001,173.406,90.14z"/>
				
					<line style="fill:none;stroke:#263238;stroke-linecap:round;stroke-linejoin:round;stroke-miterlimit:10;" x1="170.036" y1="88.696" x2="170.036" y2="91.825"/>
				
					<line style="fill:none;stroke:#263238;stroke-linecap:round;stroke-linejoin:round;stroke-miterlimit:10;" x1="171.601" y1="90.26" x2="168.471" y2="90.26"/>
			</g>
			<g>
				<path style="fill:#FFFFFF;stroke:#263238;stroke-linecap:round;stroke-linejoin:round;stroke-miterlimit:10;" d="M187.126,90.14
					c0-1.861-1.509-3.37-3.37-3.37s-3.37,1.509-3.37,3.37s1.509,3.37,3.37,3.37S187.126,92.001,187.126,90.14z"/>
				
					<line style="fill:none;stroke:#263238;stroke-linecap:round;stroke-linejoin:round;stroke-miterlimit:10;" x1="185.321" y1="90.26" x2="182.191" y2="90.26"/>
			</g>
		</g>
		<path style="fill:#263238;stroke:#263238;stroke-linecap:round;stroke-linejoin:round;stroke-miterlimit:10;" d="M340.221,70.048
			v-1.696c0-5.659-4.588-10.247-10.247-10.247H76.247C70.588,58.105,66,62.693,66,68.352v1.696H340.221z"/>
		
			<circle style="fill:#FFFFFF;stroke:#263238;stroke-linecap:round;stroke-linejoin:round;stroke-miterlimit:10;" cx="301.001" cy="64.11" r="3.061"/>
		
			<circle style="fill:#FFFFFF;stroke:#263238;stroke-linecap:round;stroke-linejoin:round;stroke-miterlimit:10;" cx="310.654" cy="64.11" r="3.061"/>
		<path style="fill:#FFFFFF;stroke:#263238;stroke-linecap:round;stroke-linejoin:round;stroke-miterlimit:10;" d="M323.367,64.11
			c0-1.69-1.37-3.061-3.06-3.061s-3.061,1.37-3.061,3.061s1.37,3.061,3.061,3.061S323.367,65.801,323.367,64.11z"/>
		<g>
			<path style="fill:#B2B2B2;stroke:#263238;stroke-linecap:round;stroke-linejoin:round;stroke-miterlimit:10;" d="M66,366.157
				v9.596C66,381.412,70.588,386,76.247,386h253.728c5.659,0,10.247-4.588,10.247-10.247v-9.596H66z"/>
			<g>
				<g>
					<rect x="119.21" y="371.967" style="fill:#263238;" width="1.685" height="7.221"/>
					<polygon style="fill:#263238;" points="123.121,375.673 127.872,378.416 127.872,372.93 					"/>
				</g>
				<g>
					
						<rect x="189.091" y="371.967" transform="matrix(-1 -1.224647e-16 1.224647e-16 -1 379.8661 751.155)" style="fill:#263238;" width="1.685" height="7.221"/>
					<polygon style="fill:#263238;" points="186.864,375.673 182.113,378.416 182.113,372.93 					"/>
				</g>
				<polygon style="fill:#263238;" points="131.786,375.673 136.538,378.416 136.538,372.93 				"/>
				<polygon style="fill:#263238;" points="176.815,375.673 172.064,378.416 172.064,372.93 				"/>
			</g>
			
				<rect x="139.395" y="369.41" style="fill:#FFFFFF;stroke:#263238;stroke-linecap:round;stroke-linejoin:round;stroke-miterlimit:10;" width="29.276" height="11.06"/>
			
				<rect x="202.623" y="369.41" style="fill:#FFFFFF;stroke:#263238;stroke-linecap:round;stroke-linejoin:round;stroke-miterlimit:10;" width="22.159" height="11.06"/>
			
				<rect x="226.397" y="369.542" style="fill:#B2B2B2;stroke:#263238;stroke-linecap:round;stroke-linejoin:round;stroke-miterlimit:10;" width="5.694" height="10.98"/>
			<g>
				<path style="fill:#263238;" d="M206.143,372.5c0.718,0,0.879-0.347,1.022-0.744h0.625v5.915h-0.929v-4.512h-0.718V372.5z"/>
				<path style="fill:#263238;" d="M208.84,373.176c0-0.946,0.499-1.487,1.411-1.487c0.913,0,1.411,0.541,1.411,1.487v3.076
					c0,0.946-0.499,1.487-1.411,1.487c-0.912,0-1.411-0.541-1.411-1.487V373.176z M209.769,376.311c0,0.422,0.186,0.583,0.482,0.583
					c0.296,0,0.482-0.16,0.482-0.583v-3.194c0-0.422-0.186-0.583-0.482-0.583c-0.296,0-0.482,0.16-0.482,0.583V376.311z"/>
				<path style="fill:#263238;" d="M212.188,373.176c0-0.946,0.499-1.487,1.411-1.487c0.913,0,1.411,0.541,1.411,1.487v3.076
					c0,0.946-0.499,1.487-1.411,1.487c-0.912,0-1.411-0.541-1.411-1.487V373.176z M213.117,376.311c0,0.422,0.186,0.583,0.482,0.583
					c0.296,0,0.482-0.16,0.482-0.583v-3.194c0-0.422-0.186-0.583-0.482-0.583c-0.296,0-0.482,0.16-0.482,0.583V376.311z"/>
				<path style="fill:#263238;" d="M215.561,372.661c0-0.608,0.313-0.946,0.896-0.946c0.583,0,0.895,0.338,0.895,0.946v1.944
					c0,0.608-0.312,0.946-0.895,0.946c-0.583,0-0.896-0.338-0.896-0.946V372.661z M216.153,374.646c0,0.262,0.11,0.372,0.304,0.372
					c0.186,0,0.304-0.11,0.304-0.372v-2.027c0-0.262-0.118-0.372-0.304-0.372c-0.194,0-0.304,0.11-0.304,0.372V374.646z
					 M218.789,371.757h0.549l-2.332,5.915h-0.549L218.789,371.757z M218.493,374.824c0-0.608,0.313-0.946,0.896-0.946
					s0.896,0.338,0.896,0.946v1.944c0,0.608-0.313,0.946-0.896,0.946s-0.896-0.338-0.896-0.946V374.824z M219.084,376.809
					c0,0.262,0.11,0.372,0.304,0.372c0.186,0,0.304-0.11,0.304-0.372v-2.027c0-0.262-0.118-0.372-0.304-0.372
					c-0.194,0-0.304,0.11-0.304,0.372V376.809z"/>
			</g>
		</g>
		<g>
			<rect x="113.181" y="170.88" style="fill:#92E3A9;" width="92.066" height="6.138"/>
			<rect x="169.006" y="231.965" style="fill:#92E3A9;" width="92.066" height="6.138"/>
			<rect x="92.887" y="314.915" style="fill:#92E3A9;" width="92.067" height="6.138"/>
			<g>
				<g>
					<path style="fill:#263238;" d="M82.047,119.971h2.087v11.383h3.434v1.897h-5.521V119.971z"/>
					<path style="fill:#263238;" d="M88.308,123.158c0-2.125,1.119-3.339,3.168-3.339c2.049,0,3.168,1.214,3.168,3.339v6.906
						c0,2.124-1.119,3.338-3.168,3.338c-2.049,0-3.168-1.214-3.168-3.338V123.158z M90.395,130.196c0,0.949,0.417,1.309,1.081,1.309
						c0.664,0,1.081-0.36,1.081-1.309v-7.171c0-0.949-0.417-1.309-1.081-1.309c-0.664,0-1.081,0.36-1.081,1.309V130.196z"/>
					<path style="fill:#263238;" d="M100.354,133.25c-0.114-0.342-0.19-0.55-0.19-1.632v-2.087c0-1.233-0.417-1.689-1.366-1.689
						h-0.721v5.407h-2.087v-13.28h3.149c2.163,0,3.092,1.005,3.092,3.054v1.044c0,1.366-0.437,2.257-1.366,2.694
						c1.044,0.437,1.385,1.442,1.385,2.827v2.049c0,0.645,0.019,1.119,0.227,1.612H100.354z M98.078,121.868v4.079h0.816
						c0.778,0,1.252-0.341,1.252-1.404v-1.309c0-0.949-0.322-1.366-1.062-1.366H98.078z"/>
					<path style="fill:#263238;" d="M105.704,125.567h2.865v1.897h-2.865v3.889h3.604v1.897h-5.691v-13.28h5.691v1.897h-3.604
						V125.567z"/>
					<path style="fill:#263238;" d="M115.019,129.399l1.423-9.429h2.902v13.28h-1.973v-9.523l-1.442,9.523h-1.973l-1.555-9.39v9.39
						h-1.821v-13.28h2.902L115.019,129.399z"/>
					<path style="fill:#263238;" d="M123.802,119.971h2.087v13.28h-2.087V119.971z"/>
					<path style="fill:#263238;" d="M133.59,123.253v1.726c0,2.125-1.024,3.282-3.111,3.282h-0.986v4.989h-2.087v-13.28h3.073
						C132.566,119.971,133.59,121.128,133.59,123.253z M129.493,121.868v4.496h0.986c0.664,0,1.025-0.303,1.025-1.252v-1.992
						c0-0.948-0.36-1.252-1.025-1.252H129.493z"/>
					<path style="fill:#263238;" d="M137.366,119.819c2.03,0,3.073,1.214,3.073,3.339v0.417h-1.973v-0.55
						c0-0.949-0.379-1.309-1.044-1.309c-0.664,0-1.044,0.36-1.044,1.309c0,2.732,4.079,3.244,4.079,7.038
						c0,2.124-1.062,3.338-3.111,3.338c-2.049,0-3.111-1.214-3.111-3.338v-0.816h1.973v0.948c0,0.949,0.417,1.29,1.082,1.29
						c0.664,0,1.081-0.341,1.081-1.29c0-2.732-4.079-3.244-4.079-7.038C134.292,121.033,135.336,119.819,137.366,119.819z"/>
					<path style="fill:#263238;" d="M143.645,119.971v10.244c0,0.949,0.417,1.29,1.081,1.29c0.664,0,1.081-0.341,1.081-1.29v-10.244
						h1.973v10.111c0,2.125-1.063,3.339-3.111,3.339c-2.049,0-3.112-1.214-3.112-3.339v-10.111H143.645z"/>
					<path style="fill:#263238;" d="M153.624,129.399l1.423-9.429h2.902v13.28h-1.973v-9.523l-1.442,9.523h-1.973l-1.555-9.39v9.39
						h-1.821v-13.28h2.902L153.624,129.399z"/>
				</g>
				<g>
					<g>
						<line style="fill:none;stroke:#263238;stroke-miterlimit:10;" x1="286.677" y1="149.405" x2="316.81" y2="149.405"/>
						<line style="fill:none;stroke:#263238;stroke-miterlimit:10;" x1="250.813" y1="149.405" x2="283.195" y2="149.405"/>
						<line style="fill:none;stroke:#263238;stroke-miterlimit:10;" x1="237.93" y1="149.405" x2="247.332" y2="149.405"/>
						<line style="fill:none;stroke:#263238;stroke-miterlimit:10;" x1="193.71" y1="149.405" x2="235.493" y2="149.405"/>
						<line style="fill:none;stroke:#263238;stroke-miterlimit:10;" x1="139.392" y1="149.405" x2="189.184" y2="149.405"/>
						<line style="fill:none;stroke:#263238;stroke-miterlimit:10;" x1="99.698" y1="149.405" x2="134.169" y2="149.405"/>
						<line style="fill:none;stroke:#263238;stroke-miterlimit:10;" x1="80.837" y1="149.405" x2="95.172" y2="149.405"/>
					</g>
					<g>
						<line style="fill:none;stroke:#263238;stroke-miterlimit:10;" x1="110.97" y1="157.413" x2="80.837" y2="157.413"/>
						<line style="fill:none;stroke:#263238;stroke-miterlimit:10;" x1="146.834" y1="157.413" x2="114.452" y2="157.413"/>
						<line style="fill:none;stroke:#263238;stroke-miterlimit:10;" x1="159.717" y1="157.413" x2="150.316" y2="157.413"/>
						<line style="fill:none;stroke:#263238;stroke-miterlimit:10;" x1="203.937" y1="157.413" x2="162.154" y2="157.413"/>
						<line style="fill:none;stroke:#263238;stroke-miterlimit:10;" x1="258.255" y1="157.413" x2="208.464" y2="157.413"/>
						<line style="fill:none;stroke:#263238;stroke-miterlimit:10;" x1="297.949" y1="157.413" x2="263.478" y2="157.413"/>
						<line style="fill:none;stroke:#263238;stroke-miterlimit:10;" x1="316.81" y1="157.413" x2="302.475" y2="157.413"/>
					</g>
					<g>
						<line style="fill:none;stroke:#263238;stroke-miterlimit:10;" x1="286.677" y1="165.074" x2="316.81" y2="165.074"/>
						<line style="fill:none;stroke:#263238;stroke-miterlimit:10;" x1="250.813" y1="165.074" x2="283.195" y2="165.074"/>
						<line style="fill:none;stroke:#263238;stroke-miterlimit:10;" x1="237.93" y1="165.074" x2="247.332" y2="165.074"/>
						<line style="fill:none;stroke:#263238;stroke-miterlimit:10;" x1="193.71" y1="165.074" x2="235.493" y2="165.074"/>
						<line style="fill:none;stroke:#263238;stroke-miterlimit:10;" x1="139.392" y1="165.074" x2="189.184" y2="165.074"/>
						<line style="fill:none;stroke:#263238;stroke-miterlimit:10;" x1="99.698" y1="165.074" x2="134.169" y2="165.074"/>
						<line style="fill:none;stroke:#263238;stroke-miterlimit:10;" x1="80.837" y1="165.074" x2="95.172" y2="165.074"/>
					</g>
					<g>
						<line style="fill:none;stroke:#263238;stroke-miterlimit:10;" x1="110.97" y1="173.082" x2="80.837" y2="173.082"/>
						<line style="fill:none;stroke:#263238;stroke-miterlimit:10;" x1="146.834" y1="173.082" x2="114.452" y2="173.082"/>
						<line style="fill:none;stroke:#263238;stroke-miterlimit:10;" x1="159.717" y1="173.082" x2="150.316" y2="173.082"/>
						<line style="fill:none;stroke:#263238;stroke-miterlimit:10;" x1="203.937" y1="173.082" x2="162.154" y2="173.082"/>
						<line style="fill:none;stroke:#263238;stroke-miterlimit:10;" x1="258.255" y1="173.082" x2="208.464" y2="173.082"/>
						<line style="fill:none;stroke:#263238;stroke-miterlimit:10;" x1="297.949" y1="173.082" x2="263.478" y2="173.082"/>
						<line style="fill:none;stroke:#263238;stroke-miterlimit:10;" x1="316.81" y1="173.082" x2="302.475" y2="173.082"/>
					</g>
					<g>
						<line style="fill:none;stroke:#263238;stroke-miterlimit:10;" x1="286.677" y1="180.742" x2="316.81" y2="180.742"/>
						<line style="fill:none;stroke:#263238;stroke-miterlimit:10;" x1="250.813" y1="180.742" x2="283.195" y2="180.742"/>
						<line style="fill:none;stroke:#263238;stroke-miterlimit:10;" x1="237.93" y1="180.742" x2="247.332" y2="180.742"/>
						<line style="fill:none;stroke:#263238;stroke-miterlimit:10;" x1="193.71" y1="180.742" x2="235.493" y2="180.742"/>
						<line style="fill:none;stroke:#263238;stroke-miterlimit:10;" x1="139.392" y1="180.742" x2="189.184" y2="180.742"/>
						<line style="fill:none;stroke:#263238;stroke-miterlimit:10;" x1="99.698" y1="180.742" x2="134.169" y2="180.742"/>
						<line style="fill:none;stroke:#263238;stroke-miterlimit:10;" x1="80.837" y1="180.742" x2="95.172" y2="180.742"/>
					</g>
					<g>
						<line style="fill:none;stroke:#263238;stroke-miterlimit:10;" x1="110.97" y1="188.751" x2="80.837" y2="188.751"/>
						<line style="fill:none;stroke:#263238;stroke-miterlimit:10;" x1="146.834" y1="188.751" x2="114.452" y2="188.751"/>
						<line style="fill:none;stroke:#263238;stroke-miterlimit:10;" x1="159.717" y1="188.751" x2="150.316" y2="188.751"/>
						<line style="fill:none;stroke:#263238;stroke-miterlimit:10;" x1="203.937" y1="188.751" x2="162.154" y2="188.751"/>
						<line style="fill:none;stroke:#263238;stroke-miterlimit:10;" x1="258.255" y1="188.751" x2="208.464" y2="188.751"/>
						<line style="fill:none;stroke:#263238;stroke-miterlimit:10;" x1="297.949" y1="188.751" x2="263.478" y2="188.751"/>
						<line style="fill:none;stroke:#263238;stroke-miterlimit:10;" x1="316.81" y1="188.751" x2="302.475" y2="188.751"/>
					</g>
					<g>
						<line style="fill:none;stroke:#263238;stroke-miterlimit:10;" x1="286.677" y1="196.411" x2="316.81" y2="196.411"/>
						<line style="fill:none;stroke:#263238;stroke-miterlimit:10;" x1="250.813" y1="196.411" x2="283.195" y2="196.411"/>
						<line style="fill:none;stroke:#263238;stroke-miterlimit:10;" x1="237.93" y1="196.411" x2="247.332" y2="196.411"/>
						<line style="fill:none;stroke:#263238;stroke-miterlimit:10;" x1="193.71" y1="196.411" x2="235.493" y2="196.411"/>
						<line style="fill:none;stroke:#263238;stroke-miterlimit:10;" x1="139.392" y1="196.411" x2="189.184" y2="196.411"/>
						<line style="fill:none;stroke:#263238;stroke-miterlimit:10;" x1="99.698" y1="196.411" x2="134.169" y2="196.411"/>
						<line style="fill:none;stroke:#263238;stroke-miterlimit:10;" x1="80.837" y1="196.411" x2="95.172" y2="196.411"/>
					</g>
					<g>
						<line style="fill:none;stroke:#263238;stroke-miterlimit:10;" x1="110.97" y1="204.419" x2="80.837" y2="204.419"/>
						<line style="fill:none;stroke:#263238;stroke-miterlimit:10;" x1="146.834" y1="204.419" x2="114.452" y2="204.419"/>
						<line style="fill:none;stroke:#263238;stroke-miterlimit:10;" x1="159.717" y1="204.419" x2="150.316" y2="204.419"/>
						<line style="fill:none;stroke:#263238;stroke-miterlimit:10;" x1="203.937" y1="204.419" x2="162.154" y2="204.419"/>
						<line style="fill:none;stroke:#263238;stroke-miterlimit:10;" x1="258.255" y1="204.419" x2="208.464" y2="204.419"/>
						<line style="fill:none;stroke:#263238;stroke-miterlimit:10;" x1="297.949" y1="204.419" x2="263.478" y2="204.419"/>
						<line style="fill:none;stroke:#263238;stroke-miterlimit:10;" x1="316.81" y1="204.419" x2="302.475" y2="204.419"/>
					</g>
					<g>
						<line style="fill:none;stroke:#263238;stroke-miterlimit:10;" x1="286.677" y1="212.079" x2="316.81" y2="212.079"/>
						<line style="fill:none;stroke:#263238;stroke-miterlimit:10;" x1="250.813" y1="212.079" x2="283.195" y2="212.079"/>
						<line style="fill:none;stroke:#263238;stroke-miterlimit:10;" x1="237.93" y1="212.079" x2="247.332" y2="212.079"/>
						<line style="fill:none;stroke:#263238;stroke-miterlimit:10;" x1="193.71" y1="212.079" x2="235.493" y2="212.079"/>
						<line style="fill:none;stroke:#263238;stroke-miterlimit:10;" x1="139.392" y1="212.079" x2="189.184" y2="212.079"/>
						<line style="fill:none;stroke:#263238;stroke-miterlimit:10;" x1="99.698" y1="212.079" x2="134.169" y2="212.079"/>
						<line style="fill:none;stroke:#263238;stroke-miterlimit:10;" x1="80.837" y1="212.079" x2="95.172" y2="212.079"/>
					</g>
					<g>
						<line style="fill:none;stroke:#263238;stroke-miterlimit:10;" x1="110.97" y1="220.088" x2="80.837" y2="220.088"/>
						<line style="fill:none;stroke:#263238;stroke-miterlimit:10;" x1="146.834" y1="220.088" x2="114.452" y2="220.088"/>
						<line style="fill:none;stroke:#263238;stroke-miterlimit:10;" x1="159.717" y1="220.088" x2="150.316" y2="220.088"/>
						<line style="fill:none;stroke:#263238;stroke-miterlimit:10;" x1="203.937" y1="220.088" x2="162.154" y2="220.088"/>
						<line style="fill:none;stroke:#263238;stroke-miterlimit:10;" x1="258.255" y1="220.088" x2="208.464" y2="220.088"/>
						<line style="fill:none;stroke:#263238;stroke-miterlimit:10;" x1="297.949" y1="220.088" x2="263.478" y2="220.088"/>
						<line style="fill:none;stroke:#263238;stroke-miterlimit:10;" x1="316.81" y1="220.088" x2="302.475" y2="220.088"/>
					</g>
					<g>
						<line style="fill:none;stroke:#263238;stroke-miterlimit:10;" x1="286.677" y1="227.748" x2="316.81" y2="227.748"/>
						<line style="fill:none;stroke:#263238;stroke-miterlimit:10;" x1="250.813" y1="227.748" x2="283.195" y2="227.748"/>
						<line style="fill:none;stroke:#263238;stroke-miterlimit:10;" x1="237.93" y1="227.748" x2="247.332" y2="227.748"/>
						<line style="fill:none;stroke:#263238;stroke-miterlimit:10;" x1="193.71" y1="227.748" x2="235.493" y2="227.748"/>
						<line style="fill:none;stroke:#263238;stroke-miterlimit:10;" x1="139.392" y1="227.748" x2="189.184" y2="227.748"/>
						<line style="fill:none;stroke:#263238;stroke-miterlimit:10;" x1="99.698" y1="227.748" x2="134.169" y2="227.748"/>
						<line style="fill:none;stroke:#263238;stroke-miterlimit:10;" x1="80.837" y1="227.748" x2="95.172" y2="227.748"/>
					</g>
					<g>
						<line style="fill:none;stroke:#263238;stroke-miterlimit:10;" x1="110.97" y1="235.756" x2="80.837" y2="235.756"/>
						<line style="fill:none;stroke:#263238;stroke-miterlimit:10;" x1="146.834" y1="235.756" x2="114.452" y2="235.756"/>
						<line style="fill:none;stroke:#263238;stroke-miterlimit:10;" x1="159.717" y1="235.756" x2="150.316" y2="235.756"/>
						<line style="fill:none;stroke:#263238;stroke-miterlimit:10;" x1="203.937" y1="235.756" x2="162.154" y2="235.756"/>
						<line style="fill:none;stroke:#263238;stroke-miterlimit:10;" x1="258.255" y1="235.756" x2="208.464" y2="235.756"/>
						<line style="fill:none;stroke:#263238;stroke-miterlimit:10;" x1="297.949" y1="235.756" x2="263.478" y2="235.756"/>
						<line style="fill:none;stroke:#263238;stroke-miterlimit:10;" x1="316.81" y1="235.756" x2="302.475" y2="235.756"/>
					</g>
					<g>
						<line style="fill:none;stroke:#263238;stroke-miterlimit:10;" x1="286.677" y1="243.417" x2="316.81" y2="243.417"/>
						<line style="fill:none;stroke:#263238;stroke-miterlimit:10;" x1="250.813" y1="243.417" x2="283.195" y2="243.417"/>
						<line style="fill:none;stroke:#263238;stroke-miterlimit:10;" x1="237.93" y1="243.417" x2="247.332" y2="243.417"/>
						<line style="fill:none;stroke:#263238;stroke-miterlimit:10;" x1="193.71" y1="243.417" x2="235.493" y2="243.417"/>
						<line style="fill:none;stroke:#263238;stroke-miterlimit:10;" x1="139.392" y1="243.417" x2="189.184" y2="243.417"/>
						<line style="fill:none;stroke:#263238;stroke-miterlimit:10;" x1="99.698" y1="243.417" x2="134.169" y2="243.417"/>
						<line style="fill:none;stroke:#263238;stroke-miterlimit:10;" x1="80.837" y1="243.417" x2="95.172" y2="243.417"/>
					</g>
					<g>
						<line style="fill:none;stroke:#263238;stroke-miterlimit:10;" x1="110.97" y1="251.425" x2="80.837" y2="251.425"/>
						<line style="fill:none;stroke:#263238;stroke-miterlimit:10;" x1="146.834" y1="251.425" x2="114.452" y2="251.425"/>
						<line style="fill:none;stroke:#263238;stroke-miterlimit:10;" x1="159.717" y1="251.425" x2="150.316" y2="251.425"/>
						<line style="fill:none;stroke:#263238;stroke-miterlimit:10;" x1="203.937" y1="251.425" x2="162.154" y2="251.425"/>
						<line style="fill:none;stroke:#263238;stroke-miterlimit:10;" x1="258.255" y1="251.425" x2="208.464" y2="251.425"/>
						<line style="fill:none;stroke:#263238;stroke-miterlimit:10;" x1="297.949" y1="251.425" x2="263.478" y2="251.425"/>
						<line style="fill:none;stroke:#263238;stroke-miterlimit:10;" x1="316.81" y1="251.425" x2="302.475" y2="251.425"/>
					</g>
				</g>
				<g>
					<path style="fill:#263238;" d="M82.047,269.972h1.395v7.609h2.295v1.268h-3.69V269.972z"/>
					<path style="fill:#263238;" d="M86.232,272.103c0-1.42,0.748-2.232,2.118-2.232c1.37,0,2.118,0.812,2.118,2.232v4.616
						c0,1.42-0.748,2.232-2.118,2.232c-1.37,0-2.118-0.812-2.118-2.232V272.103z M87.627,276.807c0,0.634,0.279,0.875,0.723,0.875
						c0.444,0,0.723-0.241,0.723-0.875v-4.793c0-0.634-0.279-0.875-0.723-0.875c-0.444,0-0.723,0.241-0.723,0.875V276.807z"/>
					<path style="fill:#263238;" d="M94.285,278.849c-0.076-0.228-0.127-0.368-0.127-1.091v-1.395c0-0.824-0.279-1.129-0.913-1.129
						h-0.482v3.614h-1.395v-8.877h2.105c1.446,0,2.067,0.672,2.067,2.042v0.698c0,0.913-0.292,1.509-0.913,1.801
						c0.698,0.292,0.926,0.964,0.926,1.889v1.37c0,0.431,0.012,0.748,0.152,1.078H94.285z M92.763,271.24v2.727h0.545
						c0.52,0,0.837-0.228,0.837-0.938v-0.875c0-0.634-0.215-0.913-0.71-0.913H92.763z"/>
					<path style="fill:#263238;" d="M97.861,273.713h1.915v1.268h-1.915v2.6h2.409v1.268h-3.804v-8.877h3.804v1.268h-2.409V273.713z
						"/>
					<path style="fill:#263238;" d="M104.087,276.275l0.951-6.303h1.94v8.877h-1.319v-6.366l-0.964,6.366h-1.319l-1.04-6.277v6.277
						h-1.217v-8.877h1.94L104.087,276.275z"/>
					<path style="fill:#263238;" d="M109.959,269.972h1.395v8.877h-1.395V269.972z"/>
					<path style="fill:#263238;" d="M116.502,272.166v1.154c0,1.42-0.685,2.194-2.08,2.194h-0.659v3.335h-1.395v-8.877h2.054
						C115.817,269.972,116.502,270.746,116.502,272.166z M113.763,271.24v3.006h0.659c0.444,0,0.685-0.203,0.685-0.837v-1.331
						c0-0.634-0.241-0.837-0.685-0.837H113.763z"/>
					<path style="fill:#263238;" d="M119.026,269.871c1.357,0,2.054,0.812,2.054,2.232v0.279h-1.319v-0.368
						c0-0.634-0.254-0.875-0.698-0.875c-0.444,0-0.698,0.241-0.698,0.875c0,1.826,2.727,2.168,2.727,4.705
						c0,1.42-0.71,2.232-2.08,2.232c-1.37,0-2.08-0.812-2.08-2.232v-0.545h1.319v0.634c0,0.634,0.279,0.862,0.723,0.862
						c0.444,0,0.723-0.228,0.723-0.862c0-1.826-2.727-2.168-2.727-4.705C116.971,270.682,117.669,269.871,119.026,269.871z"/>
					<path style="fill:#263238;" d="M123.223,269.972v6.848c0,0.634,0.279,0.862,0.723,0.862c0.444,0,0.723-0.228,0.723-0.862
						v-6.848h1.319v6.759c0,1.42-0.71,2.232-2.08,2.232c-1.37,0-2.08-0.812-2.08-2.232v-6.759H123.223z"/>
					<path style="fill:#263238;" d="M129.894,276.275l0.951-6.303h1.94v8.877h-1.319v-6.366l-0.964,6.366h-1.319l-1.04-6.277v6.277
						h-1.217v-8.877h1.94L129.894,276.275z"/>
				</g>
				<g>
					<g>
						<line style="fill:none;stroke:#263238;stroke-miterlimit:10;" x1="286.677" y1="294.947" x2="316.81" y2="294.947"/>
						<line style="fill:none;stroke:#263238;stroke-miterlimit:10;" x1="250.813" y1="294.947" x2="283.195" y2="294.947"/>
						<line style="fill:none;stroke:#263238;stroke-miterlimit:10;" x1="237.93" y1="294.947" x2="247.332" y2="294.947"/>
						<line style="fill:none;stroke:#263238;stroke-miterlimit:10;" x1="193.71" y1="294.947" x2="235.493" y2="294.947"/>
						<line style="fill:none;stroke:#263238;stroke-miterlimit:10;" x1="139.392" y1="294.947" x2="189.184" y2="294.947"/>
						<line style="fill:none;stroke:#263238;stroke-miterlimit:10;" x1="99.698" y1="294.947" x2="134.169" y2="294.947"/>
						<line style="fill:none;stroke:#263238;stroke-miterlimit:10;" x1="80.837" y1="294.947" x2="95.172" y2="294.947"/>
					</g>
					<g>
						<line style="fill:none;stroke:#263238;stroke-miterlimit:10;" x1="110.97" y1="302.955" x2="80.837" y2="302.955"/>
						<line style="fill:none;stroke:#263238;stroke-miterlimit:10;" x1="146.834" y1="302.955" x2="114.452" y2="302.955"/>
						<line style="fill:none;stroke:#263238;stroke-miterlimit:10;" x1="159.717" y1="302.955" x2="150.316" y2="302.955"/>
						<line style="fill:none;stroke:#263238;stroke-miterlimit:10;" x1="203.937" y1="302.955" x2="162.154" y2="302.955"/>
						<line style="fill:none;stroke:#263238;stroke-miterlimit:10;" x1="258.255" y1="302.955" x2="208.464" y2="302.955"/>
						<line style="fill:none;stroke:#263238;stroke-miterlimit:10;" x1="297.949" y1="302.955" x2="263.478" y2="302.955"/>
						<line style="fill:none;stroke:#263238;stroke-miterlimit:10;" x1="316.81" y1="302.955" x2="302.475" y2="302.955"/>
					</g>
					<g>
						<line style="fill:none;stroke:#263238;stroke-miterlimit:10;" x1="286.677" y1="310.616" x2="316.81" y2="310.616"/>
						<line style="fill:none;stroke:#263238;stroke-miterlimit:10;" x1="250.813" y1="310.616" x2="283.195" y2="310.616"/>
						<line style="fill:none;stroke:#263238;stroke-miterlimit:10;" x1="237.93" y1="310.616" x2="247.332" y2="310.616"/>
						<line style="fill:none;stroke:#263238;stroke-miterlimit:10;" x1="193.71" y1="310.616" x2="235.493" y2="310.616"/>
						<line style="fill:none;stroke:#263238;stroke-miterlimit:10;" x1="139.392" y1="310.616" x2="189.184" y2="310.616"/>
						<line style="fill:none;stroke:#263238;stroke-miterlimit:10;" x1="99.698" y1="310.616" x2="134.169" y2="310.616"/>
						<line style="fill:none;stroke:#263238;stroke-miterlimit:10;" x1="80.837" y1="310.616" x2="95.172" y2="310.616"/>
					</g>
					<g>
						<line style="fill:none;stroke:#263238;stroke-miterlimit:10;" x1="110.97" y1="318.624" x2="80.837" y2="318.624"/>
						<line style="fill:none;stroke:#263238;stroke-miterlimit:10;" x1="146.834" y1="318.624" x2="114.452" y2="318.624"/>
						<line style="fill:none;stroke:#263238;stroke-miterlimit:10;" x1="159.717" y1="318.624" x2="150.316" y2="318.624"/>
						<line style="fill:none;stroke:#263238;stroke-miterlimit:10;" x1="203.937" y1="318.624" x2="162.154" y2="318.624"/>
						<line style="fill:none;stroke:#263238;stroke-miterlimit:10;" x1="258.255" y1="318.624" x2="208.464" y2="318.624"/>
						<line style="fill:none;stroke:#263238;stroke-miterlimit:10;" x1="297.949" y1="318.624" x2="263.478" y2="318.624"/>
						<line style="fill:none;stroke:#263238;stroke-miterlimit:10;" x1="316.81" y1="318.624" x2="302.475" y2="318.624"/>
					</g>
					<g>
						<line style="fill:none;stroke:#263238;stroke-miterlimit:10;" x1="286.677" y1="326.284" x2="316.81" y2="326.284"/>
						<line style="fill:none;stroke:#263238;stroke-miterlimit:10;" x1="250.813" y1="326.284" x2="283.195" y2="326.284"/>
						<line style="fill:none;stroke:#263238;stroke-miterlimit:10;" x1="237.93" y1="326.284" x2="247.332" y2="326.284"/>
						<line style="fill:none;stroke:#263238;stroke-miterlimit:10;" x1="193.71" y1="326.284" x2="235.493" y2="326.284"/>
						<line style="fill:none;stroke:#263238;stroke-miterlimit:10;" x1="139.392" y1="326.284" x2="189.184" y2="326.284"/>
						<line style="fill:none;stroke:#263238;stroke-miterlimit:10;" x1="99.698" y1="326.284" x2="134.169" y2="326.284"/>
						<line style="fill:none;stroke:#263238;stroke-miterlimit:10;" x1="80.837" y1="326.284" x2="95.172" y2="326.284"/>
					</g>
					<g>
						<line style="fill:none;stroke:#263238;stroke-miterlimit:10;" x1="110.97" y1="334.293" x2="80.837" y2="334.293"/>
						<line style="fill:none;stroke:#263238;stroke-miterlimit:10;" x1="146.834" y1="334.293" x2="114.452" y2="334.293"/>
						<line style="fill:none;stroke:#263238;stroke-miterlimit:10;" x1="159.717" y1="334.293" x2="150.316" y2="334.293"/>
						<line style="fill:none;stroke:#263238;stroke-miterlimit:10;" x1="203.937" y1="334.293" x2="162.154" y2="334.293"/>
						<line style="fill:none;stroke:#263238;stroke-miterlimit:10;" x1="258.255" y1="334.293" x2="208.464" y2="334.293"/>
						<line style="fill:none;stroke:#263238;stroke-miterlimit:10;" x1="297.949" y1="334.293" x2="263.478" y2="334.293"/>
						<line style="fill:none;stroke:#263238;stroke-miterlimit:10;" x1="316.81" y1="334.293" x2="302.475" y2="334.293"/>
					</g>
					<g>
						<line style="fill:none;stroke:#263238;stroke-miterlimit:10;" x1="286.677" y1="341.953" x2="316.81" y2="341.953"/>
						<line style="fill:none;stroke:#263238;stroke-miterlimit:10;" x1="250.813" y1="341.953" x2="283.195" y2="341.953"/>
						<line style="fill:none;stroke:#263238;stroke-miterlimit:10;" x1="237.93" y1="341.953" x2="247.332" y2="341.953"/>
						<line style="fill:none;stroke:#263238;stroke-miterlimit:10;" x1="193.71" y1="341.953" x2="235.493" y2="341.953"/>
						<line style="fill:none;stroke:#263238;stroke-miterlimit:10;" x1="139.392" y1="341.953" x2="189.184" y2="341.953"/>
						<line style="fill:none;stroke:#263238;stroke-miterlimit:10;" x1="99.698" y1="341.953" x2="134.169" y2="341.953"/>
						<line style="fill:none;stroke:#263238;stroke-miterlimit:10;" x1="80.837" y1="341.953" x2="95.172" y2="341.953"/>
					</g>
				</g>
			</g>
			<g>
				<polygon style="fill:#263238;stroke:#263238;stroke-linecap:round;stroke-linejoin:round;stroke-miterlimit:10;" points="
					248.212,136.684 181.866,136.684 181.866,158.604 187.753,158.604 185.373,169.711 193.122,158.604 248.212,158.604 				"/>
				<g>
					<path style="fill:#92E3A9;" d="M195.049,149.355l-0.316,1.65h-0.843l1.569-8.193h1.322l1.569,8.193h-0.913l-0.316-1.65H195.049
						z M195.166,148.571h1.826l-0.924-4.728L195.166,148.571z"/>
					<path style="fill:#92E3A9;" d="M199.873,151.005h-0.819v-8.193h1.159l1.896,5.923v-5.923h0.808v8.193h-0.948l-2.095-6.624
						V151.005z"/>
					<path style="fill:#92E3A9;" d="M204.663,151.005h-0.819v-8.193h1.159l1.896,5.923v-5.923h0.808v8.193h-0.948l-2.095-6.624
						V151.005z"/>
					<path style="fill:#92E3A9;" d="M208.575,144.79c0-1.252,0.62-2.06,1.873-2.06c1.264,0,1.885,0.808,1.885,2.06v4.237
						c0,1.241-0.62,2.06-1.885,2.06c-1.252,0-1.873-0.819-1.873-2.06V144.79z M209.476,149.074c0,0.749,0.316,1.182,0.972,1.182
						c0.667,0,0.972-0.433,0.972-1.182v-4.33c0-0.737-0.305-1.182-0.972-1.182c-0.655,0-0.972,0.445-0.972,1.182V149.074z"/>
					<path style="fill:#92E3A9;" d="M214.382,151.005v-7.362h-1.51v-0.831h3.921v0.831h-1.51v7.362H214.382z"/>
					<path style="fill:#92E3A9;" d="M217.896,149.355l-0.316,1.65h-0.843l1.569-8.193h1.322l1.569,8.193h-0.913l-0.316-1.65H217.896
						z M218.013,148.571h1.826l-0.924-4.728L218.013,148.571z"/>
					<path style="fill:#92E3A9;" d="M222.65,151.005v-7.362h-1.51v-0.831h3.921v0.831h-1.51v7.362H222.65z"/>
					<path style="fill:#92E3A9;" d="M226.596,142.812v8.193h-0.913v-8.193H226.596z"/>
					<path style="fill:#92E3A9;" d="M227.463,144.79c0-1.252,0.62-2.06,1.873-2.06c1.264,0,1.885,0.808,1.885,2.06v4.237
						c0,1.241-0.62,2.06-1.885,2.06c-1.252,0-1.873-0.819-1.873-2.06V144.79z M228.364,149.074c0,0.749,0.316,1.182,0.972,1.182
						c0.667,0,0.972-0.433,0.972-1.182v-4.33c0-0.737-0.304-1.182-0.972-1.182c-0.655,0-0.972,0.445-0.972,1.182V149.074z"/>
					<path style="fill:#92E3A9;" d="M232.896,151.005h-0.819v-8.193h1.159l1.896,5.923v-5.923h0.808v8.193h-0.948l-2.095-6.624
						V151.005z"/>
				</g>
			</g>
			<g>
				<polygon style="fill:#263238;stroke:#263238;stroke-linecap:round;stroke-linejoin:round;stroke-miterlimit:10;" points="
					296.145,199.815 229.799,199.815 229.799,221.736 235.686,221.736 233.306,232.842 241.055,221.736 296.145,221.736 				"/>
				<g>
					<path style="fill:#92E3A9;" d="M242.982,212.486l-0.316,1.65h-0.843l1.569-8.193h1.322l1.569,8.193h-0.913l-0.316-1.65H242.982
						z M243.099,211.702h1.826L244,206.974L243.099,211.702z"/>
					<path style="fill:#92E3A9;" d="M247.806,214.137h-0.819v-8.193h1.159l1.896,5.922v-5.922h0.808v8.193h-0.948l-2.095-6.624
						V214.137z"/>
					<path style="fill:#92E3A9;" d="M252.596,214.137h-0.819v-8.193h1.159l1.896,5.922v-5.922h0.808v8.193h-0.948l-2.095-6.624
						V214.137z"/>
					<path style="fill:#92E3A9;" d="M256.508,207.922c0-1.252,0.62-2.06,1.873-2.06c1.264,0,1.885,0.808,1.885,2.06v4.237
						c0,1.241-0.62,2.06-1.885,2.06c-1.252,0-1.873-0.819-1.873-2.06V207.922z M257.409,212.205c0,0.749,0.316,1.182,0.972,1.182
						c0.667,0,0.971-0.433,0.971-1.182v-4.33c0-0.737-0.304-1.182-0.971-1.182c-0.655,0-0.972,0.445-0.972,1.182V212.205z"/>
					<path style="fill:#92E3A9;" d="M262.315,214.137v-7.362h-1.51v-0.831h3.921v0.831h-1.51v7.362H262.315z"/>
					<path style="fill:#92E3A9;" d="M265.829,212.486l-0.316,1.65h-0.843l1.569-8.193h1.322l1.569,8.193h-0.913l-0.316-1.65H265.829
						z M265.946,211.702h1.826l-0.924-4.728L265.946,211.702z"/>
					<path style="fill:#92E3A9;" d="M270.583,214.137v-7.362h-1.51v-0.831h3.921v0.831h-1.51v7.362H270.583z"/>
					<path style="fill:#92E3A9;" d="M274.529,205.944v8.193h-0.913v-8.193H274.529z"/>
					<path style="fill:#92E3A9;" d="M275.396,207.922c0-1.252,0.62-2.06,1.873-2.06c1.264,0,1.885,0.808,1.885,2.06v4.237
						c0,1.241-0.62,2.06-1.885,2.06c-1.252,0-1.873-0.819-1.873-2.06V207.922z M276.297,212.205c0,0.749,0.316,1.182,0.972,1.182
						c0.667,0,0.972-0.433,0.972-1.182v-4.33c0-0.737-0.305-1.182-0.972-1.182c-0.655,0-0.972,0.445-0.972,1.182V212.205z"/>
					<path style="fill:#92E3A9;" d="M280.829,214.137h-0.819v-8.193h1.159l1.896,5.922v-5.922h0.808v8.193h-0.948l-2.095-6.624
						V214.137z"/>
				</g>
			</g>
			<g>
				<polygon style="fill:#263238;stroke:#263238;stroke-linecap:round;stroke-linejoin:round;stroke-miterlimit:10;" points="
					235.153,279.837 168.807,279.837 168.807,301.757 174.694,301.757 172.314,312.864 180.063,301.757 235.153,301.757 				"/>
				<g>
					<path style="fill:#92E3A9;" d="M181.99,292.508l-0.316,1.65h-0.843l1.569-8.193h1.322l1.569,8.193h-0.913l-0.316-1.65H181.99z
						 M182.107,291.724h1.826l-0.924-4.728L182.107,291.724z"/>
					<path style="fill:#92E3A9;" d="M186.814,294.159h-0.819v-8.193h1.159l1.896,5.922v-5.922h0.808v8.193h-0.948l-2.095-6.624
						V294.159z"/>
					<path style="fill:#92E3A9;" d="M191.604,294.159h-0.819v-8.193h1.159l1.896,5.922v-5.922h0.808v8.193h-0.948l-2.095-6.624
						V294.159z"/>
					<path style="fill:#92E3A9;" d="M195.515,287.944c0-1.252,0.62-2.06,1.873-2.06c1.264,0,1.884,0.808,1.884,2.06v4.237
						c0,1.241-0.62,2.06-1.884,2.06c-1.252,0-1.873-0.819-1.873-2.06V287.944z M196.417,292.227c0,0.749,0.316,1.182,0.972,1.182
						c0.667,0,0.972-0.433,0.972-1.182v-4.331c0-0.737-0.305-1.182-0.972-1.182c-0.655,0-0.972,0.445-0.972,1.182V292.227z"/>
					<path style="fill:#92E3A9;" d="M201.323,294.159v-7.362h-1.509v-0.831h3.921v0.831h-1.509v7.362H201.323z"/>
					<path style="fill:#92E3A9;" d="M204.836,292.508l-0.316,1.65h-0.843l1.569-8.193h1.322l1.569,8.193h-0.913l-0.316-1.65H204.836
						z M204.954,291.724h1.826l-0.924-4.728L204.954,291.724z"/>
					<path style="fill:#92E3A9;" d="M209.59,294.159v-7.362h-1.509v-0.831h3.921v0.831h-1.509v7.362H209.59z"/>
					<path style="fill:#92E3A9;" d="M213.537,285.966v8.193h-0.913v-8.193H213.537z"/>
					<path style="fill:#92E3A9;" d="M214.404,287.944c0-1.252,0.62-2.06,1.873-2.06c1.264,0,1.885,0.808,1.885,2.06v4.237
						c0,1.241-0.62,2.06-1.885,2.06c-1.252,0-1.873-0.819-1.873-2.06V287.944z M215.305,292.227c0,0.749,0.316,1.182,0.972,1.182
						c0.667,0,0.972-0.433,0.972-1.182v-4.331c0-0.737-0.304-1.182-0.972-1.182c-0.655,0-0.972,0.445-0.972,1.182V292.227z"/>
					<path style="fill:#92E3A9;" d="M219.837,294.159h-0.819v-8.193h1.159l1.896,5.922v-5.922h0.808v8.193h-0.948l-2.095-6.624
						V294.159z"/>
				</g>
			</g>
		</g>
	</g>
</g>
<g id="Character">
	<g>
		<g>
			<g>
				<path style="fill:#263238;stroke:#263238;stroke-linecap:round;stroke-linejoin:round;stroke-miterlimit:10;" d="
					M357.857,458.336c0,0-3.507,6.312-4.676,9.351c-1.169,3.039-7.013,8.182-7.715,12.156c-0.701,3.974,1.169,6.078,10.052,6.078
					c8.883,0,17.066-6.078,18.702-6.312c1.636-0.234,4.442-1.403,4.442-2.104s-0.935-13.559-0.935-13.559
					S362.766,454.362,357.857,458.336z"/>
				<path style="fill:#FFFFFF;stroke:#263238;stroke-linecap:round;stroke-linejoin:round;stroke-miterlimit:10;" d="
					M356.688,483.584c-6.472,0.83-9.871-0.693-11.304-1.649c0.37,2.616,2.969,3.987,10.135,3.987c8.883,0,17.066-6.078,18.702-6.312
					c1.637-0.234,4.442-1.403,4.442-2.104c0-0.235-0.105-1.833-0.244-3.853c-1.118,0.498-2.464,1.15-3.964,1.983
					C370.247,477.973,365.805,482.415,356.688,483.584z"/>
				<path style="fill:#FFFFFF;stroke:#263238;stroke-linecap:round;stroke-linejoin:round;stroke-miterlimit:10;" d="
					M357.156,475.869c-4.106-1.232-7.481-0.86-9.581-0.341c-1.036,1.488-1.87,2.968-2.107,4.315
					c-0.701,3.974,1.169,6.078,10.052,6.078c3.572,0,7.021-0.986,9.987-2.177C364.558,481.515,362.181,477.377,357.156,475.869z"/>
				
					<ellipse style="fill:#FFFFFF;stroke:#263238;stroke-linecap:round;stroke-linejoin:round;stroke-miterlimit:10;" cx="373.754" cy="467.103" rx="1.636" ry="2.922"/>
			</g>
			<g>
				<path style="fill:#263238;stroke:#263238;stroke-linecap:round;stroke-linejoin:round;stroke-miterlimit:10;" d="
					M415.232,458.336c0,0,3.507,6.312,4.676,9.351c1.169,3.039,7.013,8.182,7.715,12.156c0.701,3.974-1.169,6.078-10.052,6.078
					c-8.884,0-17.066-6.078-18.702-6.312c-1.636-0.234-4.442-1.403-4.442-2.104s0.935-13.559,0.935-13.559
					S410.323,454.362,415.232,458.336z"/>
				<path style="fill:#FFFFFF;stroke:#263238;stroke-linecap:round;stroke-linejoin:round;stroke-miterlimit:10;" d="
					M416.401,483.584c6.472,0.83,9.871-0.693,11.304-1.649c-0.37,2.616-2.969,3.987-10.135,3.987
					c-8.884,0-17.066-6.078-18.702-6.312c-1.636-0.234-4.442-1.403-4.442-2.104c0-0.235,0.105-1.833,0.244-3.853
					c1.118,0.498,2.464,1.15,3.964,1.983C402.842,477.973,407.284,482.415,416.401,483.584z"/>
				<path style="fill:#FFFFFF;stroke:#263238;stroke-linecap:round;stroke-linejoin:round;stroke-miterlimit:10;" d="
					M415.933,475.869c4.106-1.232,7.481-0.86,9.582-0.341c1.037,1.488,1.87,2.968,2.107,4.315c0.701,3.974-1.169,6.078-10.052,6.078
					c-3.572,0-7.022-0.986-9.987-2.177C408.531,481.515,410.908,477.377,415.933,475.869z"/>
				<path style="fill:#FFFFFF;stroke:#263238;stroke-linecap:round;stroke-linejoin:round;stroke-miterlimit:10;" d="
					M397.699,467.103c0,1.614,0.733,2.922,1.637,2.922c0.904,0,1.636-1.308,1.636-2.922c0-1.614-0.733-2.922-1.636-2.922
					C398.431,464.181,397.699,465.489,397.699,467.103z"/>
			</g>
			<path style="fill:#263238;stroke:#263238;stroke-linecap:round;stroke-linejoin:round;stroke-miterlimit:10;" d="M362.341,288.5
				l-3.5,148.5c0,0-5.5,5.5-3.5,8s1.5,14,1.5,14s4-1.5,7.5,0s14,6.5,14,6.5l0.5-12.5c0,0,4-4,2.5-9.5s-2.5-12-2.5-12l10-104
				l5.5,99.5c0,0-3.5,8-2.5,12s2,9.5,2,9.5l1.186,17.317c0,0,8.317-1.294,10.754-2.572c3.542-1.858,8.06-5.745,8.06-5.745
				s0-20,0.5-24s-2-7-2-13s8-138.5,8-138.5l-59-0.5L362.341,288.5z"/>
			<polyline style="fill:none;stroke:#737373;stroke-linecap:round;stroke-linejoin:round;stroke-miterlimit:10;" points="
				389.298,329.506 389.97,315.608 398.951,310.923 			"/>
		</g>
		<path style="fill:#FFFFFF;stroke:#263238;stroke-linecap:round;stroke-linejoin:round;stroke-miterlimit:10;" d="M387.095,188.62
			l-12.745,8.922l-12.842,104.791c0,0,26.667,11.333,58.667,0.667l-10.456-110.556l-2.549-3.186L387.095,188.62z"/>
		<g>
			<path style="fill:#92E3A9;stroke:#263238;stroke-linecap:round;stroke-linejoin:round;stroke-miterlimit:10;" d="
				M384.653,188.544c0,0-38.384,13.287-38.384,16.239c0,2.952-14.715,49.061-14.715,49.061s2.952,7.751,8.489,7.751
				s9.596-3.322,9.596-3.322l8.072-11.416c0,0-1.476,49.087-1.476,50.194s0.369,1.845,8.489,3.322
				c8.12,1.476,17.346,1.845,17.346,1.845L384.653,188.544z"/>
			
				<line style="fill:none;stroke:#263238;stroke-linecap:round;stroke-linejoin:round;stroke-miterlimit:10;" x1="358.341" y1="239" x2="361.341" y2="215"/>
			<path style="fill:#92E3A9;stroke:#263238;stroke-linecap:round;stroke-linejoin:round;stroke-miterlimit:10;" d="M379.841,189.75
				c0,0-1.5,3.75-3,9s-6,19.5-6,19.5l13.25-5.25l-0.25-24.75C383.841,188.25,381.591,188,379.841,189.75z"/>
		</g>
		<path style="fill:#B2B2B2;stroke:#263238;stroke-linecap:round;stroke-linejoin:round;stroke-miterlimit:10;" d="M385.391,178.21
			c0,0-1.845,16.239-1.845,18.454c0,2.214,5.905,6.274,11.072,7.381c5.167,1.107,9.965-3.691,11.072-6.643
			c1.107-2.953,0.369-15.132,0.369-15.132S389.82,181.532,385.391,178.21z"/>
		<g>
			<path style="fill:#263238;stroke:#263238;stroke-linecap:round;stroke-linejoin:round;stroke-miterlimit:10;" d="
				M398.248,123.011c0,0-4.728-3.385-9.189-3.066c-4.461,0.319-2.601,4.022-2.601,4.022s-14.339,1.912-14.657,4.461
				c-0.319,2.549,2.23,4.142,2.23,4.142s-11.152,5.098-11.152,9.24s4.461,3.186,4.461,3.186s-9.559,8.603-4.779,11.152
				c4.779,2.549,6.691,0.956,6.691,0.956s-2.868,9.559,0,11.471c2.868,1.912,5.098,1.593,5.098,1.593s0.319,4.142,3.824,4.78
				c3.505,0.637,7.329,1.274,7.329,1.274s8.603,4.78,16.888,3.186c8.284-1.593,16.764-7.954,16.764-7.954s3.824-0.319,4.78-3.505
				c0.956-3.186,0.956-7.01,0.956-7.01s3.824-0.637,3.505-6.373c-0.319-5.735-1.912-8.922-1.912-8.922s5.196-2.266,2.549-7.966
				c-4.788-10.311-15.44-11.925-15.44-11.925s6.381-3.894,0.646-5.488C408.502,118.674,407.136,118.653,398.248,123.011z"/>
			<g>
				<path style="fill:#B2B2B2;stroke:#263238;stroke-linecap:round;stroke-linejoin:round;stroke-miterlimit:10;" d="
					M384.284,160.495c0,0-4.06-4.798-5.536,0.738c-1.476,5.536-1.107,8.489,1.107,9.596c2.214,1.107,2.583,0,2.583,0
					s-0.369,8.489,2.953,11.072c3.322,2.584,9.596,7.381,14.394,7.012c4.798-0.369,12.548-9.227,12.548-12.179
					c0-2.953,1.476-21.406,1.476-23.99s-2.214-6.274-4.06-6.643c-1.845-0.369-6.274-2.952-6.274-2.952l-8.858,4.429v-3.691
					c0,0-3.691,5.167-4.798,6.274c-1.107,1.107-2.583-1.107-2.583-1.107L384.284,160.495z"/>
				<polyline style="fill:none;stroke:#263238;stroke-linecap:round;stroke-linejoin:round;stroke-miterlimit:10;" points="
					401.63,160.864 401.261,174.889 394.987,174.889 				"/>
				<ellipse style="fill:#263238;" cx="392.404" cy="162.894" rx="1.476" ry="2.03"/>
				<ellipse style="fill:#263238;" cx="406.428" cy="162.894" rx="1.476" ry="2.03"/>
				
					<line style="fill:none;stroke:#263238;stroke-linecap:round;stroke-linejoin:round;stroke-miterlimit:10;" x1="389.082" y1="158.28" x2="396.833" y2="158.28"/>
				<path style="fill:none;stroke:#263238;stroke-linecap:round;stroke-linejoin:round;stroke-miterlimit:10;" d="M403.476,156.804
					c0,0,3.322-3.691,6.274,0.369"/>
			</g>
		</g>
		<g>
			<g>
				<path style="fill:#B2B2B2;stroke:#263238;stroke-linecap:round;stroke-linejoin:round;stroke-miterlimit:10;" d="
					M376.534,211.796l11.307-19.296l3.455-12.445l10.334-0.369c0,0,2.953,0.369,1.476,1.845c-1.476,1.476-7.849,1.612-7.849,1.612
					l-1.009,4.662h6.643l0.738,2.952l-1.107,8.12l-1.845,1.107l-2.214-0.369c0,0,0,1.476-1.845,4.429
					c-1.845,2.953-7.381,2.953-7.381,2.953l-4.429,12.917L376.534,211.796z"/>
				<path style="fill:none;stroke:#263238;stroke-linecap:round;stroke-linejoin:round;stroke-miterlimit:10;" d="M393.953,191.623
					c0,0,4.348-0.435,5.218-0.435c0.87,0,1.957,2.826,1.957,2.826"/>
				<path style="fill:none;stroke:#263238;stroke-linecap:round;stroke-linejoin:round;stroke-miterlimit:10;" d="M393.953,195.537
					c0,0,3.913-0.217,4.566-0.435c0.652-0.218,2.174,2.391,2.174,2.391"/>
			</g>
			<path style="fill:#92E3A9;stroke:#263238;stroke-linecap:round;stroke-linejoin:round;stroke-miterlimit:10;" d="
				M379.486,206.629l6.643,11.81L344.841,267.5c0,0-5.536,1.845-9.227-1.107c-3.691-2.953-7.382-12.179-2.953-17.346
				C337.09,243.879,379.486,206.629,379.486,206.629z"/>
		</g>
		<path style="fill:#92E3A9;stroke:#263238;stroke-linecap:round;stroke-linejoin:round;stroke-miterlimit:10;" d="M406.059,188.913
			l-1.476,112.936c0,0,9.965,1.107,11.81,1.107c1.845,0,11.81-4.06,11.81-4.06l0.738-44.658c0,0,16.802,5.466,18.647,4.728
			c1.845-0.738,0.256-9.166-1.958-17.655c-2.215-8.489-8.065-26.907-8.065-29.121c0-2.214-2.214-8.858-4.06-11.81
			C431.66,197.428,406.059,188.913,406.059,188.913z"/>
		<path style="fill:#92E3A9;stroke:#263238;stroke-linecap:round;stroke-linejoin:round;stroke-miterlimit:10;" d="M406.059,188.913
			l0.032,23.837l10.75,3.75l-5-25.5C411.841,191,408.528,188.077,406.059,188.913z"/>
		<g>
			
				<line style="fill:none;stroke:#263238;stroke-linecap:round;stroke-linejoin:round;stroke-miterlimit:10;" x1="411.063" y1="283.23" x2="425.464" y2="281.284"/>
			
				<line style="fill:none;stroke:#263238;stroke-linecap:round;stroke-linejoin:round;stroke-miterlimit:10;" x1="426.392" y1="277.575" x2="410.379" y2="279.576"/>
			
				<line style="fill:none;stroke:#263238;stroke-linecap:round;stroke-linejoin:round;stroke-miterlimit:10;" x1="408.602" y1="269.894" x2="408.309" y2="299.831"/>
			
				<line style="fill:none;stroke:#263238;stroke-linecap:round;stroke-linejoin:round;stroke-miterlimit:10;" x1="408.772" y1="252.536" x2="408.627" y2="267.378"/>
		</g>
		<g>
			<polyline style="fill:none;stroke:#263238;stroke-linecap:round;stroke-linejoin:round;stroke-miterlimit:10;" points="
				361.014,277.575 380.488,279.429 380.488,283.139 361.341,281.5 			"/>
			
				<line style="fill:none;stroke:#263238;stroke-linecap:round;stroke-linejoin:round;stroke-miterlimit:10;" x1="378.954" y1="249.045" x2="378.17" y2="278.038"/>
			
				<line style="fill:none;stroke:#263238;stroke-linecap:round;stroke-linejoin:round;stroke-miterlimit:10;" x1="379.561" y1="226.571" x2="379.041" y2="245.827"/>
			
				<line style="fill:none;stroke:#263238;stroke-linecap:round;stroke-linejoin:round;stroke-miterlimit:10;" x1="377.706" y1="285.457" x2="377.243" y2="298.904"/>
		</g>
		<g>
			<polygon style="fill:#263238;stroke:#263238;stroke-linecap:round;stroke-linejoin:round;stroke-miterlimit:10;" points="
				414.341,212.75 404.091,244.5 419.841,247 429.591,216 			"/>
			<path style="fill:#92E3A9;stroke:#263238;stroke-linecap:round;stroke-linejoin:round;stroke-miterlimit:10;" d="
				M421.072,249.998c0,0,1.007,6.841,3.547,9.804c7.518,8.77,20.093,9.746,22.97,5.429c2.878-4.316,0.853-12.478-2.088-14.617
				c-4.594-3.341-18.281-7.679-18.281-7.679s-4.447,0.654-5.363,2.878C420.941,248.036,421.072,249.998,421.072,249.998z"/>
			<path style="fill:#B2B2B2;stroke:#263238;stroke-linecap:round;stroke-linejoin:round;stroke-miterlimit:10;" d="
				M432.206,244.664c-2.72-1.002-4.986-1.729-4.986-1.729s-4.447,0.654-5.363,2.878c-0.916,2.224-0.785,4.186-0.785,4.186
				s0.235,0.838,0.628,2.11l4.391,4.391c0,0,3.5-2.75,5.5-6.75C432.749,247.434,432.565,245.71,432.206,244.664z"/>
			<g>
				<path style="fill:#B2B2B2;stroke:#263238;stroke-linecap:round;stroke-linejoin:round;stroke-miterlimit:10;" d="
					M430.228,245.551c0,0-6.822-15.302-7.191-18.254c-0.369-2.953-7.382-2.214-8.858-2.214c-1.476,0-4.429,0-2.583,1.845
					c1.845,1.845,5.905,1.845,5.905,1.845l1.476,0.369l1.107,4.798c0,0-5.905-0.369-7.012-0.369s-5.905,3.691-6.643,4.798
					c-0.738,1.107-0.738,2.953,1.476,2.953l0.61-0.218c0,0-3.008,2.616-2.354,3.532c0.654,0.916,1.046,1.308,1.831,1.308
					c0.785,0,2.616-1.177,2.616-1.177l3.532,0.262l2.485,1.308c0,0-5.101,1.177-6.017,1.439c-0.916,0.262-3.401,1.439-2.747,2.093
					c0.654,0.654,1.962,0.916,3.139,0.523c1.177-0.392,4.97-1.046,4.97-1.046s3.924,0.131,5.101,0.654
					c1.177,0.523,5.494,1.308,6.017,1.308"/>
				<path style="fill:none;stroke:#263238;stroke-linecap:round;stroke-linejoin:round;stroke-miterlimit:10;" d="M408.515,241.104
					c0,0,2.616-2.093,3.532-2.093c0.916,0,7.717,1.701,7.717,1.701"/>
			</g>
		</g>
	</g>
</g>
</svg>
